<?xml version="1.0" encoding="UTF-8"?>
<svg id="Camada_1" data-name="Camada 1" xmlns="http://www.w3.org/2000/svg" viewBox="0 0 128 128">
  <defs>
    <style>
      .cls-1 {
        fill: #1d1d1b;
      }

      .cls-1, .cls-2, .cls-3, .cls-4 {
        fill-rule: evenodd;
      }

      .cls-2 {
        fill: #e20613;
      }

      .cls-3 {
        fill: #6f6f6e;
      }

      .cls-4 {
        fill: #b1b1b1;
      }
    </style>
  </defs>
  <path class="cls-2" d="M84.32,47.11h-20c-3.8,0-6.89-3.1-6.89-6.89v-20c0-3.8,3.1-6.89,6.89-6.89h20c3.8,0,6.89,3.1,6.89,6.89v20c0,3.8,3.1,6.89,6.89,6.89h20c3.8,0,6.89,3.1,6.89,6.89v20c0,3.8-3.1,6.89-6.89,6.89h-20c-3.8,0-6.89,3.1-6.89,6.89v20c0,3.8-3.1,6.89-6.89,6.89h-20c-3.8,0-6.89-3.1-6.89-6.89v-20c0-3.8,3.1-6.89,6.89-6.89h20c3.8,0,6.89-3.1,6.89-6.89v-20c0-3.8-3.1-6.89-6.89-6.89"/>
  <path class="cls-1" d="M16.74,47.11h-6.85c-3.8,0-6.89-3.1-6.89-6.89v-6.85c0-3.8,3.1-6.89,6.89-6.89h6.85c3.8,0,6.89,3.1,6.89,6.89v6.85c0,3.8,3.1,6.89,6.89,6.89h20c3.8,0,6.89,3.1,6.89,6.89v20c0,3.8-3.1,6.89-6.89,6.89h-20c-3.8,0-6.89-3.1-6.89-6.89v-20c0-3.8-3.1-6.89-6.89-6.89"/>
  <path class="cls-3" d="M47.33,40.3h-5.44c-.81,0-1.47-.66-1.47-1.47v-5.44c0-.81.66-1.47,1.47-1.47h5.44c.81,0,1.47.66,1.47,1.47v5.44c0,.81-.66,1.47-1.47,1.47"/>
  <path class="cls-4" d="M15.02,69.16h-7.94c-1.28,0-2.32-1.05-2.32-2.32v-7.94c0-1.28,1.05-2.32,2.32-2.32h7.94c1.28,0,2.32,1.05,2.32,2.32v7.94c0,1.28-1.05,2.32-2.32,2.32"/>
  <path class="cls-3" d="M39.28,95.86h-4.54c-1.12,0-2.04-.92-2.04-2.04v-4.53c0-1.12.92-2.04,2.04-2.04h4.54c1.12,0,2.04.92,2.04,2.04v4.53c0,1.12-.92,2.04-2.04,2.04"/>
  <path class="cls-4" d="M40.73,27.94h-8.46c-1.26,0-2.29-1.03-2.29-2.29v-8.46c0-1.26,1.03-2.29,2.29-2.29h8.46c1.26,0,2.29,1.03,2.29,2.29v8.46c0,1.26-1.03,2.29-2.29,2.29"/>
</svg>