<?xml version="1.0" encoding="UTF-8"?>
<svg id="Camada_1" data-name="Camada 1" xmlns="http://www.w3.org/2000/svg" viewBox="0 0 800 200">
  <defs>
    <style>
      .cls-1, .cls-2, .cls-3, .cls-4 {
        fill-rule: evenodd;
      }

      .cls-1, .cls-5 {
        fill: #1d1d1b;
      }

      .cls-2 {
        fill: #e20613;
      }

      .cls-6 {
        fill: #ff161f;
      }

      .cls-3 {
        fill: #6f6f6e;
      }

      .cls-4 {
        fill: #b1b1b1;
      }
    </style>
  </defs>
  <g>
    <g>
      <path class="cls-2" d="M93.93,82.13h-21.87c-4.15,0-7.54-3.39-7.54-7.54v-21.87c0-4.15,3.39-7.54,7.54-7.54h21.87c4.15,0,7.54,3.39,7.54,7.54v21.87c0,4.15,3.39,7.54,7.54,7.54h21.87c4.15,0,7.54,3.39,7.54,7.54v21.87c0,4.15-3.39,7.54-7.54,7.54h-21.87c-4.15,0-7.54,3.39-7.54,7.54v21.87c0,4.15-3.39,7.54-7.54,7.54h-21.87c-4.15,0-7.54-3.39-7.54-7.54v-21.87c0-4.15,3.39-7.54,7.54-7.54h21.87c4.15,0,7.54-3.39,7.54-7.54v-21.87c0-4.15-3.39-7.54-7.54-7.54"/>
      <path class="cls-1" d="M20.03,82.13h-7.49c-4.15,0-7.54-3.39-7.54-7.54v-7.49c0-4.15,3.39-7.54,7.54-7.54h7.49c4.15,0,7.54,3.39,7.54,7.54v7.49c0,4.15,3.39,7.54,7.54,7.54h21.87c4.15,0,7.54,3.39,7.54,7.54v21.87c0,4.15-3.39,7.54-7.54,7.54h-21.87c-4.15,0-7.54-3.39-7.54-7.54v-21.87c0-4.15-3.39-7.54-7.54-7.54"/>
      <path class="cls-3" d="M53.48,74.69h-5.95c-.89,0-1.61-.72-1.61-1.61v-5.95c0-.89.72-1.61,1.61-1.61h5.95c.89,0,1.61.72,1.61,1.61v5.95c0,.89-.72,1.61-1.61,1.61"/>
      <path class="cls-4" d="M18.14,106.25h-8.68c-1.4,0-2.54-1.14-2.54-2.54v-8.68c0-1.4,1.14-2.54,2.54-2.54h8.68c1.4,0,2.54,1.14,2.54,2.54v8.68c0,1.4-1.14,2.54-2.54,2.54"/>
      <path class="cls-3" d="M44.68,135.45h-4.96c-1.23,0-2.23-1-2.23-2.23v-4.96c0-1.23,1.01-2.23,2.23-2.23h4.96c1.23,0,2.23,1.01,2.23,2.23v4.96c0,1.23-1,2.23-2.23,2.23"/>
      <path class="cls-4" d="M46.27,61.17h-9.25c-1.38,0-2.5-1.13-2.5-2.51v-9.25c0-1.38,1.13-2.51,2.5-2.51h9.25c1.38,0,2.5,1.13,2.5,2.51v9.25c0,1.38-1.13,2.51-2.5,2.51"/>
    </g>
    <g>
      <path class="cls-5" d="M152.09,77.49c-1.65-.7-2.95-1.72-3.91-3.04-.96-1.32-1.45-2.88-1.48-4.69h6.33c.08,1.21.51,2.17,1.29,2.87.77.7,1.84,1.06,3.19,1.06s2.46-.33,3.25-.99c.79-.66,1.18-1.53,1.18-2.6,0-.87-.27-1.59-.8-2.15-.54-.56-1.2-1.01-2.01-1.33-.8-.32-1.91-.68-3.31-1.08-1.91-.56-3.47-1.12-4.67-1.67-1.2-.55-2.22-1.38-3.08-2.49-.86-1.11-1.29-2.6-1.29-4.45,0-1.74.44-3.26,1.31-4.56.87-1.29,2.1-2.29,3.67-2.98,1.58-.69,3.38-1.03,5.4-1.03,3.04,0,5.51.74,7.41,2.22,1.9,1.48,2.95,3.54,3.15,6.18h-6.5c-.06-1.01-.49-1.85-1.29-2.51-.8-.66-1.86-.99-3.19-.99-1.15,0-2.08.3-2.77.89-.69.59-1.03,1.45-1.03,2.58,0,.79.26,1.44.78,1.96.52.52,1.17.94,1.94,1.27.77.32,1.86.7,3.27,1.12,1.91.56,3.48,1.13,4.69,1.69,1.21.56,2.25,1.41,3.12,2.53.87,1.13,1.31,2.6,1.31,4.43,0,1.58-.41,3.04-1.22,4.39-.82,1.35-2.01,2.43-3.59,3.23-1.58.8-3.45,1.2-5.61,1.2-2.05,0-3.91-.35-5.55-1.06Z"/>
      <path class="cls-5" d="M171.04,60.18c.94-1.83,2.22-3.24,3.84-4.22,1.62-.98,3.43-1.48,5.43-1.48,1.74,0,3.27.35,4.58,1.06,1.31.7,2.36,1.59,3.15,2.66v-3.34h5.95v23.39h-5.95v-3.42c-.76,1.1-1.81,2.01-3.15,2.72-1.34.72-2.88,1.08-4.62,1.08-1.97,0-3.76-.51-5.38-1.52-1.62-1.01-2.9-2.44-3.84-4.29-.94-1.84-1.41-3.96-1.41-6.35s.47-4.46,1.41-6.29ZM187.19,62.86c-.56-1.03-1.32-1.82-2.28-2.36-.96-.55-1.98-.82-3.08-.82s-2.11.27-3.04.8c-.93.53-1.68,1.32-2.26,2.34-.58,1.03-.87,2.24-.87,3.65s.29,2.64.87,3.69c.58,1.06,1.34,1.86,2.28,2.43.94.56,1.95.84,3.02.84s2.12-.27,3.08-.82c.96-.55,1.72-1.34,2.28-2.36.56-1.03.84-2.26.84-3.69s-.28-2.67-.84-3.69Z"/>
      <path class="cls-5" d="M219.16,54.86v23.39h-5.95v-2.96c-.76,1.01-1.75,1.81-2.98,2.39-1.22.58-2.55.87-3.99.87-1.83,0-3.45-.39-4.86-1.16-1.41-.77-2.51-1.91-3.31-3.42-.8-1.51-1.2-3.3-1.2-5.38v-13.72h5.91v12.88c0,1.86.46,3.29,1.39,4.29.93,1,2.2,1.5,3.8,1.5s2.91-.5,3.84-1.5c.93-1,1.39-2.43,1.39-4.29v-12.88h5.95ZM212.74,48.78l-9.71,4.43v-4.22l9.71-5.02v4.81Z"/>
      <path class="cls-5" d="M222.77,60.18c.94-1.83,2.23-3.24,3.86-4.22,1.63-.98,3.45-1.48,5.45-1.48,1.52,0,2.97.33,4.35.99,1.38.66,2.48,1.54,3.29,2.64v-11.1h5.99v31.24h-5.99v-3.46c-.73,1.15-1.76,2.08-3.08,2.79-1.32.7-2.86,1.06-4.6,1.06-1.97,0-3.77-.51-5.4-1.52-1.63-1.01-2.92-2.44-3.86-4.29-.94-1.84-1.41-3.96-1.41-6.35s.47-4.46,1.41-6.29ZM238.92,62.86c-.56-1.03-1.32-1.82-2.28-2.36-.96-.55-1.98-.82-3.08-.82s-2.11.27-3.04.8c-.93.53-1.68,1.32-2.26,2.34-.58,1.03-.87,2.24-.87,3.65s.29,2.64.87,3.69c.58,1.06,1.34,1.86,2.28,2.43.94.56,1.95.84,3.02.84s2.12-.27,3.08-.82c.96-.55,1.72-1.34,2.28-2.36.56-1.03.84-2.26.84-3.69s-.28-2.67-.84-3.69Z"/>
      <path class="cls-5" d="M271.51,68.32h-17.1c.14,1.69.73,3.01,1.77,3.97,1.04.96,2.32,1.44,3.84,1.44,2.19,0,3.76-.94,4.69-2.83h6.37c-.68,2.25-1.97,4.1-3.88,5.55-1.91,1.45-4.26,2.17-7.05,2.17-2.25,0-4.27-.5-6.06-1.5-1.79-1-3.18-2.41-4.18-4.24-1-1.83-1.5-3.94-1.5-6.33s.49-4.55,1.48-6.38c.98-1.83,2.36-3.24,4.14-4.22,1.77-.98,3.81-1.48,6.12-1.48s4.21.48,5.97,1.44c1.76.96,3.12,2.32,4.1,4.07.97,1.76,1.46,3.78,1.46,6.06,0,.84-.06,1.6-.17,2.28ZM265.56,64.36c-.03-1.52-.58-2.74-1.65-3.65-1.07-.91-2.38-1.37-3.93-1.37-1.46,0-2.7.44-3.69,1.33-1,.89-1.61,2.12-1.84,3.69h11.1Z"/>
      <path class="cls-5" d="M165.93,87.18c2.35,1.21,4.17,2.93,5.45,5.17,1.28,2.24,1.92,4.83,1.92,7.79s-.64,5.54-1.92,7.75c-1.28,2.21-3.1,3.92-5.45,5.13-2.35,1.21-5.07,1.82-8.17,1.82h-10.3v-29.47h10.3c3.1,0,5.82.61,8.17,1.82ZM164.73,107.28c1.69-1.69,2.53-4.07,2.53-7.13s-.84-5.47-2.53-7.2c-1.69-1.73-4.08-2.6-7.18-2.6h-4.18v19.46h4.18c3.1,0,5.49-.84,7.18-2.53Z"/>
      <path class="cls-5" d="M176.21,87.67c-.69-.66-1.03-1.48-1.03-2.47s.34-1.81,1.03-2.47c.69-.66,1.55-.99,2.6-.99s1.91.33,2.6.99c.69.66,1.03,1.49,1.03,2.47s-.35,1.81-1.03,2.47c-.69.66-1.56.99-2.6.99s-1.91-.33-2.6-.99ZM181.72,91.45v23.39h-5.91v-23.39h5.91Z"/>
      <path class="cls-5" d="M199.97,92.1c1.32.69,2.36,1.58,3.12,2.68v-3.34h5.95v23.56c0,2.17-.44,4.1-1.31,5.81-.87,1.7-2.18,3.05-3.93,4.05-1.75,1-3.86,1.5-6.33,1.5-3.32,0-6.04-.77-8.17-2.32-2.13-1.55-3.33-3.66-3.61-6.33h5.87c.31,1.07.98,1.92,2.01,2.55,1.03.63,2.27.95,3.74.95,1.72,0,3.11-.51,4.18-1.54,1.07-1.03,1.6-2.58,1.6-4.67v-3.63c-.76,1.1-1.81,2.01-3.15,2.74-1.34.73-2.86,1.1-4.58,1.1-1.97,0-3.77-.51-5.4-1.52-1.63-1.01-2.92-2.44-3.86-4.29-.94-1.84-1.41-3.96-1.41-6.35s.47-4.46,1.41-6.29c.94-1.83,2.22-3.24,3.84-4.22,1.62-.98,3.43-1.48,5.43-1.48,1.74,0,3.28.34,4.6,1.03ZM202.25,99.45c-.56-1.03-1.32-1.82-2.28-2.36-.96-.55-1.98-.82-3.08-.82s-2.11.27-3.04.8c-.93.53-1.68,1.32-2.26,2.34-.58,1.03-.87,2.24-.87,3.65s.29,2.64.87,3.69c.58,1.06,1.34,1.86,2.28,2.43.94.56,1.95.84,3.02.84s2.12-.27,3.08-.82c.96-.55,1.72-1.34,2.28-2.36.56-1.03.84-2.26.84-3.69s-.28-2.67-.84-3.69Z"/>
      <path class="cls-5" d="M212.68,87.67c-.69-.66-1.03-1.48-1.03-2.47s.34-1.81,1.03-2.47c.69-.66,1.55-.99,2.6-.99s1.91.33,2.6.99c.69.66,1.03,1.49,1.03,2.47s-.35,1.81-1.03,2.47c-.69.66-1.56.99-2.6.99s-1.91-.33-2.6-.99ZM218.19,91.45v23.39h-5.91v-23.39h5.91Z"/>
      <path class="cls-5" d="M230.21,96.3v11.31c0,.79.19,1.36.57,1.71.38.35,1.02.53,1.92.53h2.74v4.98h-3.72c-4.98,0-7.47-2.42-7.47-7.26v-11.27h-2.79v-4.86h2.79v-5.78h5.95v5.78h5.24v4.86h-5.24Z"/>
      <path class="cls-5" d="M238.92,96.77c.94-1.83,2.22-3.24,3.84-4.22,1.62-.98,3.43-1.48,5.43-1.48,1.74,0,3.27.35,4.58,1.06,1.31.7,2.36,1.59,3.15,2.66v-3.34h5.95v23.39h-5.95v-3.42c-.76,1.1-1.81,2.01-3.15,2.72-1.34.72-2.88,1.08-4.62,1.08-1.97,0-3.76-.51-5.38-1.52-1.62-1.01-2.9-2.44-3.84-4.29-.94-1.84-1.41-3.96-1.41-6.35s.47-4.46,1.41-6.29ZM255.07,99.45c-.56-1.03-1.32-1.82-2.28-2.36-.96-.55-1.98-.82-3.08-.82s-2.11.27-3.04.8c-.93.53-1.68,1.32-2.26,2.34-.58,1.03-.87,2.24-.87,3.65s.29,2.64.87,3.69c.58,1.06,1.34,1.86,2.28,2.43.94.56,1.95.84,3.02.84s2.12-.27,3.08-.82c.96-.55,1.72-1.34,2.28-2.36.56-1.03.84-2.26.84-3.69s-.28-2.67-.84-3.69Z"/>
      <path class="cls-5" d="M271.47,83.59v31.24h-5.91v-31.24h5.91Z"/>
      <path class="cls-5" d="M167.83,136.87c-.75,1.38-1.91,2.49-3.5,3.34-1.59.84-3.6,1.27-6.02,1.27h-4.94v11.31h-5.91v-29.47h10.85c2.28,0,4.22.39,5.83,1.18,1.6.79,2.81,1.87,3.61,3.25.8,1.38,1.2,2.94,1.2,4.69,0,1.58-.37,3.05-1.12,4.43ZM161.69,135.58c.79-.75,1.18-1.79,1.18-3.15,0-2.87-1.6-4.31-4.81-4.31h-4.69v8.57h4.69c1.63,0,2.84-.37,3.63-1.12Z"/>
      <path class="cls-5" d="M170.37,134.72c.94-1.83,2.22-3.24,3.84-4.22,1.62-.98,3.43-1.48,5.43-1.48,1.74,0,3.27.35,4.58,1.06,1.31.7,2.36,1.59,3.15,2.66v-3.34h5.95v23.39h-5.95v-3.42c-.76,1.1-1.81,2.01-3.15,2.72-1.34.72-2.88,1.08-4.62,1.08-1.97,0-3.76-.51-5.38-1.52-1.62-1.01-2.9-2.44-3.84-4.29-.94-1.84-1.41-3.96-1.41-6.35s.47-4.46,1.41-6.29ZM186.51,137.4c-.56-1.03-1.32-1.82-2.28-2.36-.96-.55-1.98-.82-3.08-.82s-2.11.27-3.04.8c-.93.54-1.68,1.32-2.26,2.34-.58,1.03-.87,2.25-.87,3.65s.29,2.64.87,3.69c.58,1.06,1.34,1.86,2.28,2.43.94.56,1.95.84,3.02.84s2.12-.27,3.08-.82c.96-.55,1.72-1.34,2.28-2.36.56-1.03.84-2.26.84-3.69s-.28-2.67-.84-3.69Z"/>
      <path class="cls-5" d="M218.48,129.4v23.39h-5.95v-2.96c-.76,1.01-1.75,1.81-2.98,2.39-1.22.58-2.55.87-3.99.87-1.83,0-3.45-.39-4.86-1.16-1.41-.77-2.51-1.91-3.31-3.42-.8-1.51-1.2-3.3-1.2-5.38v-13.72h5.91v12.88c0,1.86.46,3.29,1.39,4.29.93,1,2.2,1.5,3.8,1.5s2.91-.5,3.84-1.5c.93-1,1.39-2.43,1.39-4.29v-12.88h5.95Z"/>
      <path class="cls-5" d="M227.38,121.54v31.24h-5.91v-31.24h5.91Z"/>
      <path class="cls-5" d="M231.25,125.62c-.69-.66-1.03-1.48-1.03-2.47s.34-1.81,1.03-2.47c.69-.66,1.55-.99,2.6-.99s1.91.33,2.6.99c.69.66,1.03,1.49,1.03,2.47s-.34,1.81-1.03,2.47c-.69.66-1.55.99-2.6.99s-1.91-.33-2.6-.99ZM236.76,129.4v23.39h-5.91v-23.39h5.91Z"/>
      <path class="cls-5" d="M243.78,152.13c-1.52-.69-2.72-1.63-3.61-2.81-.89-1.18-1.37-2.49-1.46-3.93h5.95c.11.9.56,1.65,1.33,2.24.77.59,1.74.89,2.89.89s2.01-.23,2.64-.68c.63-.45.95-1.03.95-1.73,0-.76-.39-1.33-1.16-1.71-.77-.38-2.01-.79-3.69-1.25-1.75-.42-3.17-.86-4.29-1.31-1.11-.45-2.07-1.14-2.87-2.07-.8-.93-1.2-2.18-1.2-3.76,0-1.29.37-2.48,1.12-3.55.75-1.07,1.82-1.91,3.21-2.53,1.39-.62,3.03-.93,4.92-.93,2.79,0,5.01.7,6.67,2.09,1.66,1.39,2.58,3.27,2.74,5.64h-5.66c-.08-.93-.47-1.67-1.16-2.22-.69-.55-1.61-.82-2.77-.82-1.07,0-1.89.2-2.47.59-.58.39-.87.94-.87,1.65,0,.79.39,1.39,1.18,1.79.79.41,2.01.82,3.67,1.25,1.69.42,3.08.86,4.18,1.31,1.1.45,2.05,1.15,2.85,2.09.8.94,1.22,2.19,1.25,3.74,0,1.35-.37,2.56-1.12,3.63-.75,1.07-1.82,1.91-3.21,2.51-1.39.6-3.02.91-4.88.91s-3.63-.34-5.15-1.03Z"/>
      <path class="cls-5" d="M267.67,134.25v11.31c0,.79.19,1.36.57,1.71.38.35,1.02.53,1.92.53h2.74v4.98h-3.72c-4.98,0-7.47-2.42-7.47-7.26v-11.27h-2.79v-4.86h2.79v-5.78h5.95v5.78h5.24v4.86h-5.24Z"/>
      <path class="cls-5" d="M275.86,134.72c.94-1.83,2.22-3.24,3.84-4.22,1.62-.98,3.43-1.48,5.43-1.48,1.74,0,3.27.35,4.58,1.06,1.31.7,2.36,1.59,3.15,2.66v-3.34h5.95v23.39h-5.95v-3.42c-.76,1.1-1.81,2.01-3.15,2.72-1.34.72-2.88,1.08-4.62,1.08-1.97,0-3.76-.51-5.38-1.52-1.62-1.01-2.9-2.44-3.84-4.29-.94-1.84-1.41-3.96-1.41-6.35s.47-4.46,1.41-6.29ZM292,137.4c-.56-1.03-1.32-1.82-2.28-2.36-.96-.55-1.98-.82-3.08-.82s-2.11.27-3.04.8c-.93.54-1.68,1.32-2.26,2.34-.58,1.03-.87,2.25-.87,3.65s.29,2.64.87,3.69c.58,1.06,1.34,1.86,2.28,2.43.94.56,1.95.84,3.02.84s2.12-.27,3.08-.82c.96-.55,1.72-1.34,2.28-2.36.56-1.03.84-2.26.84-3.69s-.28-2.67-.84-3.69Z"/>
    </g>
  </g>
  <g>
    <g>
      <path d="M667.73,96.76h-8.03v-30.89h12.78c3.47,0,6.13.9,7.97,2.7,1.84,1.8,2.77,4.34,2.77,7.62s-.92,5.82-2.77,7.62c-1.84,1.8-4.5,2.7-7.97,2.7h-4.75v10.24ZM667.73,80.04h2.66c2.95,0,4.43-1.28,4.43-3.85s-1.48-3.85-4.43-3.85h-2.66v7.7Z"/>
      <path d="M701.82,91.39h-11.47l-1.84,5.37h-8.56l11.76-30.89h8.77l11.76,30.89h-8.56l-1.84-5.37ZM699.69,85.29l-3.61-10.28-3.61,10.28h7.21Z"/>
      <path d="M720.06,65.87v16.8c0,.9.03,1.82.1,2.77.07.94.27,1.8.61,2.56.34.76.88,1.39,1.62,1.86.74.48,1.78.72,3.11.72s2.37-.24,3.09-.72c.72-.48,1.26-1.1,1.62-1.86.35-.76.57-1.62.64-2.56.07-.94.1-1.86.1-2.77v-16.8h7.99v17.91c0,4.81-1.1,8.32-3.3,10.53-2.2,2.21-5.58,3.32-10.14,3.32s-7.95-1.11-10.16-3.32c-2.21-2.21-3.32-5.72-3.32-10.53v-17.91h8.03Z"/>
      <path d="M750.62,65.87v24.09h9.63v6.8h-17.66v-30.89h8.03Z"/>
      <path d="M760.79,81.31c0-2.29.42-4.43,1.27-6.41.85-1.98,2.02-3.71,3.52-5.18,1.5-1.48,3.3-2.63,5.39-3.46,2.09-.83,4.39-1.25,6.9-1.25s4.78.42,6.88,1.25c2.1.83,3.91,1.99,5.43,3.46,1.52,1.48,2.7,3.2,3.54,5.18.85,1.98,1.27,4.12,1.27,6.41s-.42,4.43-1.27,6.41c-.85,1.98-2.03,3.71-3.54,5.18-1.52,1.47-3.33,2.63-5.43,3.46-2.1.83-4.4,1.25-6.88,1.25s-4.81-.42-6.9-1.25c-2.09-.83-3.89-1.99-5.39-3.46-1.5-1.48-2.68-3.2-3.52-5.18-.85-1.98-1.27-4.12-1.27-6.41ZM769.19,81.31c0,1.23.23,2.36.7,3.4.46,1.04,1.09,1.94,1.88,2.7.79.77,1.71,1.36,2.77,1.78,1.05.42,2.16.64,3.34.64s2.29-.21,3.34-.64c1.05-.42,1.98-1.02,2.79-1.78.81-.76,1.44-1.67,1.91-2.7.46-1.04.7-2.17.7-3.4s-.23-2.36-.7-3.4c-.46-1.04-1.1-1.94-1.91-2.7-.81-.76-1.74-1.36-2.79-1.78-1.05-.42-2.17-.64-3.34-.64s-2.29.21-3.34.64c-1.05.42-1.97,1.02-2.77,1.78-.79.77-1.42,1.67-1.88,2.7-.46,1.04-.7,2.17-.7,3.4Z"/>
    </g>
    <g>
      <path d="M578.17,73.77c-.87-.71-1.75-1.24-2.62-1.58-.87-.34-1.72-.51-2.54-.51-1.04,0-1.88.25-2.54.74-.66.49-.98,1.13-.98,1.93,0,.55.16,1,.49,1.35.33.36.76.66,1.29.92.53.26,1.13.49,1.8.68.67.19,1.33.4,1.99.61,2.62.87,4.54,2.04,5.76,3.5,1.22,1.46,1.82,3.37,1.82,5.72,0,1.58-.27,3.02-.8,4.3-.53,1.28-1.31,2.38-2.34,3.3-1.02.92-2.28,1.63-3.77,2.13-1.49.51-3.18.76-5.06.76-3.91,0-7.53-1.16-10.86-3.48l3.44-6.47c1.2,1.07,2.39,1.86,3.56,2.38,1.17.52,2.34.78,3.48.78,1.31,0,2.29-.3,2.93-.9.64-.6.96-1.28.96-2.05,0-.46-.08-.87-.25-1.21-.16-.34-.44-.66-.82-.94-.38-.29-.88-.55-1.5-.8-.61-.25-1.36-.52-2.23-.82-1.04-.33-2.06-.69-3.05-1.09-1-.4-1.88-.92-2.66-1.58-.78-.66-1.41-1.48-1.88-2.48-.48-1-.72-2.26-.72-3.79s.25-2.92.76-4.16c.51-1.24,1.22-2.31,2.13-3.2.91-.89,2.03-1.58,3.36-2.07,1.32-.49,2.81-.74,4.45-.74,1.53,0,3.13.21,4.79.64,1.67.42,3.26,1.04,4.79,1.86l-3.2,6.27Z"/>
      <path d="M604.27,91.39h-11.47l-1.84,5.37h-8.56l11.76-30.89h8.77l11.76,30.89h-8.56l-1.84-5.37ZM589.56,62.63c0-2.02.46-3.63,1.39-4.81.93-1.19,2.12-1.78,3.56-1.78.57,0,1.22.09,1.93.27.71.18,1.41.37,2.11.57.7.2,1.34.39,1.93.55.59.16,1.06.25,1.41.25.87,0,1.46-.56,1.76-1.68h4.06c-.27,2.46-.87,4.18-1.78,5.16-.92.98-2.15,1.47-3.71,1.47-.77,0-1.52-.09-2.25-.27-.74-.18-1.43-.37-2.09-.57-.66-.2-1.24-.4-1.76-.57-.52-.18-.96-.27-1.31-.27-.3,0-.56.11-.78.33-.22.22-.42.67-.61,1.35h-3.85ZM602.14,85.29l-3.61-10.28-3.61,10.28h7.21Z"/>
      <path d="M613.08,81.31c0-2.29.42-4.43,1.27-6.41.85-1.98,2.02-3.71,3.52-5.18,1.5-1.48,3.3-2.63,5.39-3.46,2.09-.83,4.39-1.25,6.9-1.25s4.78.42,6.88,1.25c2.1.83,3.91,1.99,5.43,3.46s2.7,3.2,3.54,5.18c.85,1.98,1.27,4.12,1.27,6.41s-.42,4.43-1.27,6.41c-.85,1.98-2.03,3.71-3.54,5.18-1.52,1.47-3.33,2.63-5.43,3.46-2.1.83-4.4,1.25-6.88,1.25s-4.81-.42-6.9-1.25c-2.09-.83-3.89-1.99-5.39-3.46-1.5-1.48-2.68-3.2-3.52-5.18-.85-1.98-1.27-4.12-1.27-6.41ZM621.48,81.31c0,1.23.23,2.36.7,3.4.46,1.04,1.09,1.94,1.88,2.7.79.77,1.71,1.36,2.77,1.78,1.05.42,2.16.64,3.34.64s2.29-.21,3.34-.64c1.05-.42,1.98-1.02,2.79-1.78.81-.76,1.44-1.67,1.91-2.7.46-1.04.7-2.17.7-3.4s-.23-2.36-.7-3.4c-.46-1.04-1.1-1.94-1.91-2.7-.81-.76-1.74-1.36-2.79-1.78-1.05-.42-2.17-.64-3.34-.64s-2.29.21-3.34.64c-1.05.42-1.97,1.02-2.77,1.78-.79.77-1.42,1.67-1.88,2.7-.46,1.04-.7,2.17-.7,3.4Z"/>
    </g>
    <g>
      <path d="M567.73,133.46c-.51-.66-1.17-1.08-2.06-1.08s-1.68.62-1.68,1.47c0,2.2,5.45,1.28,5.45,5.67,0,2.62-1.71,4.48-4.52,4.48-1.89,0-3.28-1.04-4.23-2.55l1.73-1.61c.36,1.01,1.33,1.91,2.48,1.91s1.77-.88,1.77-1.89c0-1.35-1.31-1.73-2.39-2.13-1.77-.69-3.06-1.54-3.06-3.57,0-2.17,1.69-3.92,4.01-3.92,1.22,0,2.91.57,3.75,1.46l-1.26,1.77Z"/>
      <path d="M575.45,140.9l-1.13,2.76h-2.82l5.36-13.43h2.08l5.21,13.43h-2.86l-1.06-2.76h-4.77ZM574.36,129.23c.09-1.01.73-2.41,1.99-2.41.44,0,.95.19,1.4.36.47.17.89.38,1.18.38.51,0,.66-.35.86-.73h1.51c-.2,1.11-.84,2.45-2.2,2.45-.38,0-.82-.19-1.26-.38-.44-.19-.86-.38-1.2-.38-.46,0-.67.35-.78.71h-1.49ZM577.77,134.07h-.04l-1.51,4.75h3.26l-1.71-4.75Z"/>
      <path d="M592.9,144.01c-4.19,0-6.79-3.05-6.79-6.9s2.7-6.87,6.79-6.87,6.79,2.98,6.79,6.87-2.6,6.9-6.79,6.9ZM592.9,132.75c-2.53,0-4.03,2.13-4.03,4.25s1.06,4.49,4.03,4.49,4.03-2.48,4.03-4.49c0-2.12-1.49-4.25-4.03-4.25Z"/>
      <path d="M612.56,143.66h-2.68v-13.08h3.64c2.88,0,4.75,1.09,4.75,4.06,0,2.78-1.58,4.13-4.39,4.13h-1.33v4.89ZM612.56,136.65h.55c1.58,0,2.44-.33,2.44-2.03s-1.02-1.93-2.51-1.93h-.47v3.95Z"/>
      <path d="M622.65,140.9l-1.13,2.76h-2.82l5.36-13.43h2.08l5.21,13.43h-2.86l-1.06-2.76h-4.77ZM624.96,134.07h-.04l-1.51,4.75h3.26l-1.71-4.75Z"/>
      <path d="M633.89,130.58h2.68v7.32c0,1.61.15,3.89,2.42,3.89s2.42-2.27,2.42-3.89v-7.32h2.68v7.82c0,3.19-1.42,5.6-5.1,5.6s-5.1-2.41-5.1-5.6v-7.82Z"/>
      <path d="M650.47,141.44h3.79v2.22h-6.47v-13.08h2.68v10.86Z"/>
      <path d="M663.05,144.01c-4.19,0-6.79-3.05-6.79-6.9s2.7-6.87,6.79-6.87,6.79,2.98,6.79,6.87-2.6,6.9-6.79,6.9ZM663.05,132.75c-2.53,0-4.03,2.13-4.03,4.25s1.06,4.49,4.03,4.49,4.03-2.48,4.03-4.49c0-2.12-1.49-4.25-4.03-4.25Z"/>
      <path d="M686.5,133.46c-.51-.66-1.17-1.08-2.06-1.08s-1.68.62-1.68,1.47c0,2.2,5.45,1.28,5.45,5.67,0,2.62-1.71,4.48-4.52,4.48-1.89,0-3.28-1.04-4.23-2.55l1.73-1.61c.36,1.01,1.33,1.91,2.48,1.91s1.77-.88,1.77-1.89c0-1.35-1.31-1.73-2.39-2.13-1.77-.69-3.06-1.54-3.06-3.57,0-2.17,1.69-3.92,4.01-3.92,1.22,0,2.91.57,3.75,1.46l-1.26,1.77Z"/>
      <path d="M694.22,140.9l-1.13,2.76h-2.82l5.36-13.43h2.08l5.21,13.43h-2.86l-1.06-2.76h-4.77ZM693.13,129.23c.09-1.01.73-2.41,1.99-2.41.44,0,.95.19,1.4.36.47.17.89.38,1.18.38.51,0,.66-.35.86-.73h1.51c-.2,1.11-.84,2.45-2.2,2.45-.38,0-.82-.19-1.26-.38-.44-.19-.86-.38-1.2-.38-.46,0-.67.35-.78.71h-1.49ZM696.53,134.07h-.04l-1.51,4.75h3.26l-1.71-4.75Z"/>
      <path d="M711.67,144.01c-4.19,0-6.79-3.05-6.79-6.9s2.7-6.87,6.79-6.87,6.79,2.98,6.79,6.87-2.6,6.9-6.79,6.9ZM711.67,132.75c-2.53,0-4.03,2.13-4.03,4.25s1.06,4.49,4.03,4.49,4.03-2.48,4.03-4.49c0-2.12-1.49-4.25-4.03-4.25Z"/>
      <path d="M733.11,143.66h-2.68v-10.86h-2.77v-2.22h8.22v2.22h-2.77v10.86Z"/>
      <path d="M744.81,144.01c-4.19,0-6.79-3.05-6.79-6.9s2.7-6.87,6.79-6.87,6.79,2.98,6.79,6.87-2.6,6.9-6.79,6.9ZM744.81,132.75c-2.53,0-4.03,2.13-4.03,4.25s1.06,4.49,4.03,4.49,4.03-2.48,4.03-4.49c0-2.12-1.49-4.25-4.03-4.25Z"/>
      <path d="M754.72,130.58h3.83c3.97,0,6.63,2.83,6.63,6.56s-2.73,6.52-6.65,6.52h-3.81v-13.08ZM757.39,141.44h.44c3.3,0,4.57-1.73,4.57-4.32,0-2.84-1.53-4.32-4.57-4.32h-.44v8.64Z"/>
      <path d="M774.43,144.01c-4.19,0-6.79-3.05-6.79-6.9s2.7-6.87,6.79-6.87,6.79,2.98,6.79,6.87-2.6,6.9-6.79,6.9ZM774.43,132.75c-2.53,0-4.03,2.13-4.03,4.25s1.06,4.49,4.03,4.49,4.03-2.48,4.03-4.49c0-2.12-1.49-4.25-4.03-4.25Z"/>
      <path d="M790.8,133.46c-.51-.66-1.17-1.08-2.06-1.08s-1.68.62-1.68,1.47c0,2.2,5.45,1.28,5.45,5.67,0,2.62-1.71,4.48-4.52,4.48-1.89,0-3.28-1.04-4.23-2.55l1.73-1.61c.36,1.01,1.33,1.91,2.48,1.91s1.77-.88,1.77-1.89c0-1.35-1.31-1.73-2.39-2.13-1.77-.69-3.06-1.54-3.06-3.57,0-2.17,1.69-3.92,4.01-3.92,1.22,0,2.91.57,3.75,1.46l-1.26,1.77Z"/>
    </g>
    <g>
      <path d="M418.56,65.9h-19.44c-10.74,0-19.44,8.7-19.44,19.44h0c0,10.74,8.7,19.44,19.44,19.44h-19.44v38.88h58.32c10.74,0,19.44-8.7,19.44-19.44h0c0-10.74-8.7-19.44-19.44-19.44h19.44v-38.88h-38.88Z"/>
      <path class="cls-6" d="M525.48,65.9h-48.6c-5.37,0-9.72,4.35-9.72,9.72v68.04l38.88-19.44h19.44c10.74,0,19.44-8.7,19.44-19.44h0v-19.44h0c0-10.74-8.7-19.44-19.44-19.44Z"/>
    </g>
    <g>
      <path d="M574.51,110.99c-.04,2.05-.19,3.79-1.46,5.54-1.4,1.92-3.51,2.75-5.9,2.75-4.5,0-7.63-2.99-7.63-7.4s3.15-7.55,7.76-7.55c2.94,0,5.22,1.3,6.45,3.92l-3.53,1.45c-.51-1.34-1.59-2.23-3.09-2.23-2.45,0-3.72,2.29-3.72,4.43s1.33,4.39,3.77,4.39c1.61,0,2.85-.82,3-2.44h-3.04v-2.86h7.38Z"/>
      <path d="M592.13,111.55c0,4.54-3.32,7.74-7.91,7.74s-7.91-3.2-7.91-7.74c0-4.24,3.79-7.22,7.91-7.22s7.91,2.98,7.91,7.22ZM580.18,111.57c0,2.42,1.82,4.18,4.04,4.18s4.04-1.77,4.04-4.18c0-1.93-1.82-3.7-4.04-3.7s-4.04,1.77-4.04,3.7Z"/>
      <path d="M599.93,113.32l3.47-8.52h4.04l-6.11,14.02h-2.88l-6.01-14.02h4.04l3.45,8.52Z"/>
      <path d="M612.98,107.88v2.34h4.19v3.09h-4.19v2.42h4.42v3.09h-8.14v-14.02h8.14v3.09h-4.42Z"/>
      <path d="M632.38,118.82h-4.63l-3.51-5.39h-.04v5.39h-3.72v-14.02h5.56c2.83,0,4.97,1.32,4.97,4.31,0,1.93-1.1,3.61-3.13,3.96l4.5,5.75ZM624.21,111.08h.36c1.21,0,2.58-.22,2.58-1.75s-1.37-1.75-2.58-1.75h-.36v3.5Z"/>
      <path d="M633.98,104.8h3.72l6.81,8.57h.04v-8.57h3.72v14.02h-3.72l-6.81-8.59h-.04v8.59h-3.72v-14.02Z"/>
      <path d="M665.87,111.55c0,4.54-3.32,7.74-7.91,7.74s-7.91-3.2-7.91-7.74c0-4.24,3.79-7.22,7.91-7.22s7.91,2.98,7.91,7.22ZM653.92,111.57c0,2.42,1.82,4.18,4.04,4.18s4.04-1.77,4.04-4.18c0-1.93-1.82-3.7-4.04-3.7s-4.04,1.77-4.04,3.7Z"/>
      <path d="M675.73,104.8h5.27c3.98,0,7.27,3.07,7.27,7.01s-3.3,7.01-7.27,7.01h-5.27v-14.02ZM679.45,115.73h.83c2.22,0,4.12-1.19,4.12-3.92,0-2.51-1.69-3.92-4.08-3.92h-.87v7.85Z"/>
      <path d="M705.93,111.55c0,4.54-3.32,7.74-7.91,7.74s-7.91-3.2-7.91-7.74c0-4.24,3.79-7.22,7.91-7.22s7.91,2.98,7.91,7.22ZM693.98,111.57c0,2.42,1.82,4.18,4.04,4.18s4.04-1.77,4.04-4.18c0-1.93-1.82-3.7-4.04-3.7s-4.04,1.77-4.04,3.7Z"/>
      <path d="M718.19,107.88v2.34h4.19v3.09h-4.19v2.42h4.42v3.09h-8.14v-14.02h8.14v3.09h-4.42Z"/>
      <path d="M733.82,108.41c-.68-.56-1.56-.93-2.47-.93-.68,0-1.59.39-1.59,1.17s1.01,1.13,1.65,1.34l.95.28c1.99.58,3.53,1.56,3.53,3.83,0,1.39-.34,2.83-1.48,3.78-1.12.93-2.62,1.32-4.06,1.32-1.8,0-3.57-.6-5.03-1.6l1.59-2.94c.93.8,2.03,1.45,3.3,1.45.87,0,1.8-.43,1.8-1.41s-1.46-1.38-2.26-1.6c-2.33-.65-3.87-1.25-3.87-3.96s2.07-4.7,4.93-4.7c1.44,0,3.21.45,4.48,1.15l-1.48,2.83Z"/>
      <path d="M743.66,118.82h-3.72v-10.93h-3.07v-3.09h9.86v3.09h-3.07v10.93Z"/>
      <path d="M751.65,116.38l-.99,2.44h-3.95l5.5-14.02h4.06l5.39,14.02h-3.96l-.93-2.44h-5.12ZM754.25,109.13h-.04l-1.54,4.46h3.09l-1.52-4.46Z"/>
      <path d="M763.9,104.8h5.27c3.98,0,7.27,3.07,7.27,7.01s-3.3,7.01-7.27,7.01h-5.27v-14.02ZM767.62,115.73h.83c2.22,0,4.12-1.19,4.12-3.92,0-2.51-1.69-3.92-4.08-3.92h-.87v7.85Z"/>
      <path d="M794.16,111.55c0,4.54-3.32,7.74-7.91,7.74s-7.91-3.2-7.91-7.74c0-4.24,3.79-7.22,7.91-7.22s7.91,2.98,7.91,7.22ZM782.21,111.57c0,2.42,1.82,4.18,4.04,4.18s4.04-1.77,4.04-4.18c0-1.93-1.82-3.7-4.04-3.7s-4.04,1.77-4.04,3.7Z"/>
    </g>
  </g>
</svg>